# xmcd CD database file
#
# Track frame offsets:
#	150
#	12057
#	27007
#	42175
#	54182
#	67545
#	82010
#	97722
#	110557
#	123482
#	136610
#	149727
#	163370
#	178330
#	192240
#	204037
#	217357
#	230097
#	242307
#	255387
#	267832
#	280840
#	294025
#	306570
#	320100
#	332727
#
# Disc length: 4590 seconds
#
# Revision: 1
# Processed by: cddbd v1.5.2PL0 Copyright (c) Steve Scherf et al.
# Submitted via: CDex 2.14
#
DISCID=7411ec1a
DTITLE=Julia Lee - The Chronological Julia Lee 1927-1946
DYEAR=2004
DGENRE=Blues
TTITLE0=Down Home Syncopated Blues
TTITLE1=The Merrit Stomp
TTITLE2=If I Could Be with You One Hour Tonight
TTITLE3=Paseo Street
TTITLE4=Ruff Scufflin'
TTITLE5=St. James Infirmary
TTITLE6=He's Tall Dark and Handsome
TTITLE7=Won't You Come Over to My House?
TTITLE8=Come Over to My House
TTITLE9=Trouble in Mind
TTITLE10=If It's Good
TTITLE11=Show Me Missouri Blues
TTITLE12=Lotus Blosum
TTITLE13=Dream Lucky Blues
TTITLE14=Julia's Blues
TTITLE15=Lies
TTITLE16=Gotta Gimme Whatcha Got
TTITLE17=When a Woman Loves a Man
TTITLE18=Oh Marie
TTITLE19=I'll Get Along Somehow
TTITLE20=A Partner's Love Song to a Chambermad
TTITLE21=Have You Ever Been Lovely
TTITLE22=Since I've Been With You
TTITLE23=Out In The Cold Again
TTITLE24=Young Girl's Blues
TTITLE25=On My Way Out
EXTD=YEAR: 2004
EXTT0=
EXTT1=
EXTT2=
EXTT3=
EXTT4=
EXTT5=
EXTT6=
EXTT7=
EXTT8=
EXTT9=
EXTT10=
EXTT11=
EXTT12=
EXTT13=
EXTT14=
EXTT15=
EXTT16=
EXTT17=
EXTT18=
EXTT19=
EXTT20=
EXTT21=
EXTT22=
EXTT23=
EXTT24=
EXTT25=
PLAYORDER=
